<svg id="Layer_1" data-name="Layer 1" xmlns="http://www.w3.org/2000/svg" viewBox="0 0 324.63 262.44"><path d="M369.1,225.7,337,357.39c26.68,12.93,45.11,7.25,51.88,5.31l28-116.63,48.65,49.66-47.66,47.66c-12.23,13.53-27.31,22.17-48.89,22.17-16.59,0-69.92-12.49-69.92-69.92,0-28.76,22.81-69.94,70.08-69.94l1-56.92c-72.22,0-130,53.94-132.35,126.94-2.37,72.19,56.31,135.43,131.18,135.43,0,0,50.63,3.59,95.56-40.6l97.81-94.82L458.67,204.26s-10.56-10-19.81-15.32Z" transform="translate(-237.69 -168.78)" style="fill:#121b1c"/></svg>