<svg id="Layer_1" data-name="Layer 1" xmlns="http://www.w3.org/2000/svg" xmlns:xlink="http://www.w3.org/1999/xlink" viewBox="0 0 800 600"><defs><linearGradient id="linear-gradient" y1="150" x2="400" y2="150" gradientUnits="userSpaceOnUse"><stop offset="0" stop-color="#ee9b00"/><stop offset="0.45" stop-color="#eb9900"/><stop offset="0.74" stop-color="#e39400"/><stop offset="0.98" stop-color="#d48b00"/><stop offset="0.99" stop-color="#d38a00"/></linearGradient><linearGradient id="linear-gradient-2" x1="510.93" y1="300" x2="695.91" y2="300" gradientUnits="userSpaceOnUse"><stop offset="0" stop-color="#fea500"/><stop offset="0.38" stop-color="#fba300"/><stop offset="0.63" stop-color="#f39e00"/><stop offset="0.84" stop-color="#e49500"/><stop offset="0.99" stop-color="#d38a00"/></linearGradient><linearGradient id="linear-gradient-3" y1="450" y2="450" xlink:href="#linear-gradient"/></defs><rect width="800" height="600" style="fill:#121b1c"/><rect width="400" height="300" style="stroke:#121b1c;stroke-miterlimit:10;fill:url(#linear-gradient)"/><path d="M585.81,257.66l-18.31,75c15.21,7.37,25.71,4.13,29.57,3L613,269.27l27.72,28.3-27.16,27.15c-7,7.71-15.56,12.63-27.85,12.63-9.46,0-39.84-7.11-39.84-39.84,0-16.38,13-39.85,39.92-39.85l.58-32.43c-41.15,0-74,30.74-75.42,72.33-1.35,41.13,32.09,77.17,74.76,77.17,0,0,28.84,2,54.45-23.13l55.73-54-59.06-52.12a73.77,73.77,0,0,0-11.28-8.73Z" style="fill:url(#linear-gradient-2)"/><rect y="300" width="400" height="300" style="stroke:#121b1c;stroke-miterlimit:10;fill:url(#linear-gradient-3)"/><path d="M129.75,129.22,119,173.45c9,4.34,15.15,2.43,17.42,1.78l9.4-39.17,16.34,16.68-16,16a20.91,20.91,0,0,1-16.42,7.45c-5.57,0-23.48-4.19-23.48-23.48,0-9.66,7.66-23.49,23.53-23.49l.34-19.11c-24.25,0-43.64,18.11-44.45,42.63-.79,24.24,18.92,45.48,44.06,45.48,0,0,17,1.2,32.09-13.64l32.85-31.84L159.83,122a44.29,44.29,0,0,0-6.65-5.14Z" style="fill:#121b1c"/><path d="M227.86,157.72a8.9,8.9,0,0,1-2.48-.31,4.9,4.9,0,0,1-1.84-1,3.94,3.94,0,0,1-1.12-1.65,6.45,6.45,0,0,1-.38-2.36,5.8,5.8,0,0,1,.69-3,4.31,4.31,0,0,1,2-1.79,7.63,7.63,0,0,1,3.23-.61,11.37,11.37,0,0,1,1.18.06,9.88,9.88,0,0,1,1.11.18v2.19c-.32-.07-.65-.12-1-.16a9.33,9.33,0,0,0-1.07-.06,4.6,4.6,0,0,0-1.84.32,2.13,2.13,0,0,0-1.08,1,3.84,3.84,0,0,0-.35,1.78,4,4,0,0,0,.34,1.8,2.07,2.07,0,0,0,1.06,1,4.44,4.44,0,0,0,1.8.31,7.82,7.82,0,0,0,1.07-.08c.36-.06.71-.13,1.06-.22v2.18a7.68,7.68,0,0,1-1.13.24A9.07,9.07,0,0,1,227.86,157.72Z"/><path d="M233.59,157.58l3.3-10.36H241l3.3,10.36h-2.72l-2.76-9.2H239l-2.75,9.2Zm2.54-2.56.58-2.11h4.4l.58,2.11Z"/><path d="M248.06,157.58V147.22h2.78l4.65,7h-.44v-7h2.6v10.36h-2.77l-4.66-7h.44v7Z"/><path d="M268.27,157.71a9.17,9.17,0,0,1-3.51-.58,4.33,4.33,0,0,1-2.11-1.75,6.48,6.48,0,0,1,0-5.9,4.45,4.45,0,0,1,2.13-1.79,8.81,8.81,0,0,1,3.5-.61,10.08,10.08,0,0,1,1.24.07,11,11,0,0,1,1.17.18v2.19c-.35-.07-.7-.13-1.06-.17a9.82,9.82,0,0,0-1.09-.06,6.07,6.07,0,0,0-2.14.32,2.31,2.31,0,0,0-1.2,1,3.75,3.75,0,0,0-.39,1.82,3.69,3.69,0,0,0,.36,1.74,2.11,2.11,0,0,0,1.07,1,4.24,4.24,0,0,0,1.79.33c.27,0,.55,0,.84,0a7.64,7.64,0,0,0,.77-.08l-1.19,1v-3.86H271v4.93c-.46.07-.92.13-1.39.17A12.88,12.88,0,0,1,268.27,157.71Z"/><path d="M281.64,157.71a9.22,9.22,0,0,1-3.52-.58,4.31,4.31,0,0,1-2.1-1.75,6.48,6.48,0,0,1,0-5.9,4.4,4.4,0,0,1,2.13-1.79,8.76,8.76,0,0,1,3.49-.61,10.24,10.24,0,0,1,1.25.07,11,11,0,0,1,1.17.18v2.19c-.35-.07-.71-.13-1.07-.17a9.69,9.69,0,0,0-1.09-.06,6,6,0,0,0-2.13.32,2.27,2.27,0,0,0-1.2,1,3.75,3.75,0,0,0-.39,1.82,3.69,3.69,0,0,0,.36,1.74,2.13,2.13,0,0,0,1.06,1,4.32,4.32,0,0,0,1.8.33c.27,0,.55,0,.84,0s.54,0,.77-.08l-1.19,1v-3.86h2.56v4.93c-.45.07-.92.13-1.38.17A13,13,0,0,1,281.64,157.71Z"/><path d="M289,157.58V147.22h2.77v10.36Z"/><path d="M296.39,157.58V147.22h2.77v3.88h3.94v-3.88h2.77v10.36H303.1v-4.11h-3.94v4.11Z"/><path d="M193.62,410.58,182.83,454.8c9,4.34,15.15,2.44,17.42,1.79l9.4-39.17L226,434.1l-16,16a20.93,20.93,0,0,1-16.42,7.44c-5.57,0-23.48-4.19-23.48-23.48,0-9.65,7.66-23.48,23.53-23.48l.34-19.12c-24.25,0-43.64,18.12-44.44,42.63a44.3,44.3,0,0,0,44,45.48s17,1.21,32.09-13.63l32.85-31.84L223.7,403.38a43.49,43.49,0,0,0-6.65-5.15Z" style="fill:#edf2fb"/><path d="M163.93,501.67a9,9,0,0,1-2.49-.32,4.84,4.84,0,0,1-1.83-1,4,4,0,0,1-1.13-1.65,6.75,6.75,0,0,1-.38-2.36,5.78,5.78,0,0,1,.69-2.95,4.43,4.43,0,0,1,2-1.8A7.83,7.83,0,0,1,164,491a11.56,11.56,0,0,1,1.19.06c.38,0,.75.1,1.11.17v2.2c-.33-.07-.66-.13-1-.17s-.7-.05-1.07-.05a4.67,4.67,0,0,0-1.84.32,2.21,2.21,0,0,0-1.08,1,4,4,0,0,0-.35,1.78,4,4,0,0,0,.35,1.8,2.09,2.09,0,0,0,1.05,1,4.69,4.69,0,0,0,1.8.31,6.56,6.56,0,0,0,1.08-.09,7.67,7.67,0,0,0,1.06-.22v2.19a9.43,9.43,0,0,1-1.14.24A8.93,8.93,0,0,1,163.93,501.67Z" style="fill:#fff"/><path d="M169.65,501.53,173,491.17h4l3.31,10.36H177.6l-2.76-9.2h.26l-2.76,9.2Zm2.54-2.56.58-2.11h4.41l.58,2.11Z" style="fill:#fff"/><path d="M184.13,501.53V491.17h2.78l4.65,7h-.44v-7h2.6v10.36h-2.78l-4.65-7h.44v7Z" style="fill:#fff"/><path d="M204.34,501.66a9.42,9.42,0,0,1-3.52-.58,4.23,4.23,0,0,1-2.1-1.76,5.63,5.63,0,0,1-.7-2.95,5.71,5.71,0,0,1,.71-2.94,4.5,4.5,0,0,1,2.14-1.8,9,9,0,0,1,3.49-.6c.43,0,.84,0,1.25.06s.79.11,1.17.19v2.19a9.53,9.53,0,0,0-1.07-.17,9.69,9.69,0,0,0-1.09-.06,6,6,0,0,0-2.13.32,2.24,2.24,0,0,0-1.2,1,3.7,3.7,0,0,0-.39,1.82,3.8,3.8,0,0,0,.35,1.73,2.26,2.26,0,0,0,1.07,1,4.5,4.5,0,0,0,1.8.32l.84,0,.76-.08-1.19,1v-3.85h2.57v4.93l-1.38.17A13,13,0,0,1,204.34,501.66Z" style="fill:#fff"/><path d="M217.71,501.66a9.42,9.42,0,0,1-3.52-.58,4.3,4.3,0,0,1-2.11-1.76,5.72,5.72,0,0,1-.7-2.95,5.62,5.62,0,0,1,.72-2.94,4.5,4.5,0,0,1,2.14-1.8,8.92,8.92,0,0,1,3.49-.6,12.41,12.41,0,0,1,1.24.06c.4.05.79.11,1.17.19v2.19a9.36,9.36,0,0,0-1.06-.17,9.82,9.82,0,0,0-1.09-.06,6,6,0,0,0-2.13.32,2.29,2.29,0,0,0-1.21,1,4.5,4.5,0,0,0,0,3.55,2.22,2.22,0,0,0,1.07,1,4.41,4.41,0,0,0,1.79.32l.84,0c.29,0,.55-.05.77-.08l-1.19,1v-3.85h2.57v4.93l-1.39.17A12.7,12.7,0,0,1,217.71,501.66Z" style="fill:#fff"/><path d="M225.07,501.53V491.17h2.77v10.36Z" style="fill:#fff"/><path d="M232.46,501.53V491.17h2.77v3.88h3.94v-3.88h2.77v10.36h-2.77v-4.11h-3.94v4.11Z" style="fill:#fff"/></svg>